<svg width="612" height="481" viewBox="0 0 612 481" fill="none" xmlns="http://www.w3.org/2000/svg">
<path opacity="0.3" d="M588.038 311.122C584.911 322.793 574.148 331.925 557.137 338.382C540.14 344.833 517.011 348.569 489.369 349.512C434.09 351.4 360.878 342.119 282.843 321.209C204.808 300.3 136.764 271.731 89.8345 242.457C66.3672 227.819 48.2051 213.019 36.7107 198.934C25.2072 184.837 20.452 171.546 23.5791 159.876C26.7061 148.206 37.4694 139.073 54.4802 132.617C71.4776 126.165 94.6061 122.43 122.249 121.486C177.527 119.599 250.74 128.88 328.775 149.789C406.81 170.699 474.854 199.267 521.783 228.541C545.25 243.18 563.412 257.979 574.907 272.065C586.41 286.162 591.165 299.452 588.038 311.122Z" stroke="#2344F4"/>
<path opacity="0.3" d="M588.04 238.314C584.913 249.984 574.15 259.116 557.139 265.573C540.142 272.024 517.013 275.76 489.371 276.704C434.092 278.591 360.88 269.31 282.845 248.401C204.81 227.491 136.765 198.922 89.8364 169.649C66.3692 155.01 48.2071 140.211 36.7127 126.125C25.2091 112.028 20.454 98.7376 23.581 87.0674C26.708 75.3972 37.4714 66.2649 54.4822 59.8083C71.4795 53.3569 94.6081 49.6213 122.251 48.6776C177.529 46.7904 250.742 56.0713 328.777 76.9807C406.812 97.8901 474.856 126.459 521.785 155.732C545.252 170.371 563.414 185.17 574.909 199.256C586.412 213.353 591.167 226.644 588.04 238.314Z" stroke="#2344F4"/>
<path opacity="0.3" d="M588.04 333.865C584.913 345.535 574.15 354.667 557.139 361.124C540.142 367.575 517.013 371.311 489.371 372.254C434.092 374.142 360.88 364.861 282.845 343.951C204.81 323.042 136.765 294.473 89.8364 265.2C66.3692 250.561 48.2071 235.762 36.7127 221.676C25.2091 207.579 20.454 194.288 23.581 182.618C26.708 170.948 37.4714 161.816 54.4822 155.359C71.4795 148.908 94.6081 145.172 122.251 144.228C177.529 142.341 250.742 151.622 328.777 172.531C406.812 193.441 474.856 222.01 521.785 251.283C545.252 265.922 563.414 280.721 574.909 294.807C586.412 308.904 591.167 322.194 588.04 333.865Z" stroke="#2344F4"/>
<path opacity="0.3" d="M588.04 393.931C584.913 405.601 574.15 414.734 557.139 421.19C540.142 427.642 517.013 431.377 489.371 432.321C434.092 434.208 360.88 424.927 282.845 404.018C204.81 383.108 136.765 354.54 89.8364 325.266C66.3692 310.627 48.2071 295.828 36.7127 281.742C25.2091 267.645 20.454 254.355 23.581 242.685C26.708 231.014 37.4714 221.882 54.4822 215.426C71.4795 208.974 94.6081 205.238 122.251 204.295C177.529 202.408 250.742 211.689 328.777 232.598C406.812 253.507 474.856 282.076 521.785 311.35C545.252 325.988 563.414 340.788 574.909 354.873C586.412 368.97 591.167 382.261 588.04 393.931Z" stroke="#2344F4"/>
</svg>
