<svg width="42" height="41" viewBox="0 0 42 41" fill="none" xmlns="http://www.w3.org/2000/svg">
<path d="M21 0C9.3975 0 0 9.24 0 20.636C0 29.7553 6.0165 37.4885 14.3587 40.215C15.4087 40.4093 15.7937 39.7705 15.7937 39.2228C15.7937 38.7328 15.7763 37.4343 15.7675 35.714C9.926 36.9583 8.694 32.9455 8.694 32.9455C7.7385 30.5638 6.35775 29.9268 6.35775 29.9268C4.4555 28.6475 6.50475 28.6738 6.50475 28.6738C8.6135 28.8173 9.72125 30.8 9.72125 30.8C11.5937 33.9553 14.637 33.0435 15.8375 32.5168C16.0265 31.1815 16.5673 30.2733 17.1675 29.757C12.5038 29.2408 7.602 27.4663 7.602 19.5598C7.602 17.3075 8.41575 15.4665 9.76325 14.0228C9.527 13.5013 8.81825 11.403 9.947 8.561C9.947 8.561 11.7058 8.008 15.722 10.6768C17.402 10.2183 19.187 9.99075 20.972 9.98025C22.757 9.99075 24.542 10.2183 26.222 10.6768C30.212 8.008 31.9707 8.561 31.9707 8.561C33.0995 11.403 32.3907 13.5013 32.1807 14.0228C33.5195 15.4665 34.3332 17.3075 34.3332 19.5598C34.3332 27.4873 29.4245 29.232 24.752 29.7395C25.487 30.359 26.1695 31.6243 26.1695 33.558C26.1695 36.3195 26.1433 38.5385 26.1433 39.2088C26.1433 39.7495 26.5107 40.3953 27.587 40.1888C35.9888 37.4798 42 29.7413 42 20.636C42 9.24 32.5972 0 21 0Z" fill="#F6F6F6"/>
</svg>
