<svg width="95" height="35" viewBox="0 0 95 35" fill="none" xmlns="http://www.w3.org/2000/svg">
<g clip-path="url(#clip0_213_609)">
<path d="M49.0467 11.5926L53.5664 11.3028C53.6695 12.0359 53.8585 12.5814 54.1679 12.9735C54.6662 13.5873 55.3537 13.8941 56.2645 13.8941C56.9347 13.8941 57.4674 13.7407 57.8283 13.4168C58.172 13.161 58.3783 12.7519 58.3783 12.3257C58.3783 11.9165 58.1892 11.5244 57.8627 11.2687C57.519 10.9618 56.7113 10.655 55.4396 10.3822C53.3602 9.92188 51.8651 9.30815 50.9886 8.52393C50.1122 7.79086 49.6138 6.71682 49.6482 5.57459C49.6482 4.79037 49.8887 4.00615 50.3356 3.35832C50.8511 2.62524 51.5557 2.0456 52.3978 1.72169C53.3086 1.32958 54.5803 1.125 56.1785 1.125C58.1377 1.125 59.6328 1.48301 60.6639 2.21609C61.695 2.93211 62.3137 4.09139 62.5027 5.67688L58.0346 5.9326C57.9143 5.25067 57.6737 4.75627 57.2784 4.43236C56.8831 4.10844 56.3676 3.95501 55.6974 3.95501C55.1474 3.95501 54.735 4.07434 54.46 4.29597C54.2022 4.50055 54.0304 4.80742 54.0476 5.14838C54.0476 5.4041 54.1851 5.64278 54.3913 5.79621C54.6147 6.00079 55.1474 6.18832 55.9895 6.3588C58.0689 6.80206 59.5469 7.24531 60.4577 7.70561C61.3685 8.16592 62.0215 8.72851 62.4168 9.39339C62.8292 10.0753 63.0355 10.8595 63.0183 11.6608C63.0183 12.6155 62.7433 13.5702 62.1934 14.3715C61.6263 15.2068 60.8357 15.8547 59.9077 16.2468C58.9282 16.673 57.6909 16.8946 56.2129 16.8946C53.6008 16.8946 51.7963 16.4002 50.7824 15.3944C49.7685 14.3885 49.167 13.1269 49.0467 11.5926ZM1.08267 16.6389V1.39777H9.00507C10.4658 1.39777 11.6 1.51711 12.3734 1.77283C13.1295 2.01151 13.7997 2.50591 14.2466 3.17079C14.7449 3.90386 14.9855 4.75627 14.9683 5.64278C15.0199 7.14302 14.2466 8.57507 12.9233 9.3252C12.4077 9.61502 11.8406 9.81959 11.2563 9.92188C11.686 10.0412 12.1156 10.2458 12.4937 10.4845C12.7858 10.7231 13.0264 10.9959 13.2498 11.2857C13.5076 11.5756 13.731 11.8995 13.92 12.2404L16.2229 16.6559H10.8267L8.28329 11.9677C7.95677 11.371 7.6818 10.9789 7.42402 10.7913C7.08032 10.5527 6.66787 10.4333 6.25543 10.4333H5.84298V16.6218H1.08267V16.6389ZM5.84298 7.56923H7.85365C8.28329 7.53513 8.69573 7.46694 9.10818 7.36465C9.41751 7.31351 9.69248 7.14302 9.88151 6.8873C10.3455 6.27356 10.2768 5.4041 9.70966 4.87561C9.40033 4.61989 8.79884 4.4835 7.93958 4.4835H5.84298V7.56923ZM0 29.6978L4.51972 29.408C4.62283 30.1411 4.81187 30.6866 5.1212 31.0787C5.60239 31.6925 6.30698 32.0164 7.2178 32.0164C7.88802 32.0164 8.42077 31.8629 8.78166 31.539C9.12536 31.2663 9.33158 30.8741 9.33158 30.4479C9.33158 30.0388 9.14255 29.6467 8.81603 29.391C8.47232 29.0841 7.66462 28.7772 6.37572 28.5044C4.29631 28.0441 2.80119 27.4304 1.92475 26.6462C1.0483 25.9131 0.549928 24.8391 0.584298 23.6968C0.584298 22.9126 0.824892 22.1284 1.27171 21.4806C1.78726 20.7475 2.49186 20.1679 3.33394 19.8439C4.24475 19.4518 5.51646 19.2473 7.11469 19.2473C9.07381 19.2473 10.5689 19.6053 11.6 20.3383C12.6312 21.0714 13.2326 22.2137 13.4217 23.7991L8.95351 24.0549C8.83321 23.3729 8.59262 22.8785 8.19736 22.5546C7.81928 22.2307 7.28654 22.0773 6.61632 22.0943C6.06639 22.0943 5.65394 22.2137 5.37898 22.4523C5.10402 22.6569 4.94935 22.9638 4.96653 23.3047C4.96653 23.5605 5.10402 23.7991 5.31024 23.9526C5.53365 24.1571 6.06639 24.3447 6.90847 24.5152C8.98788 24.9584 10.4658 25.4017 11.3766 25.862C12.2874 26.3223 12.9405 26.8849 13.3357 27.5497C13.7482 28.2317 13.9544 29.0159 13.9544 29.8001C13.9544 30.7548 13.6623 31.6925 13.1295 32.4937C12.5624 33.3291 11.7719 33.9769 10.8439 34.369C9.86433 34.7952 8.62699 35.0169 7.14906 35.0169C4.5369 35.0169 2.73245 34.5225 1.71852 33.5166C0.704595 32.4937 0.137482 31.2322 0 29.6978Z" fill="#F6F6F6"/>
<path d="M22.8568 28.5043L27.0156 29.7488C26.7922 30.7887 26.3282 31.7775 25.6923 32.647C25.1081 33.4141 24.3347 34.0108 23.4583 34.4029C22.5646 34.795 21.4304 34.9996 20.0556 34.9996C18.3886 34.9996 17.0138 34.761 15.9655 34.2836C14.9 33.8063 13.9892 32.9538 13.2159 31.7434C12.4425 30.533 12.0645 28.9816 12.0645 27.0893C12.0645 24.5661 12.7347 22.6226 14.0923 21.2758C15.4499 19.929 17.3575 19.2471 19.8322 19.2471C21.7741 19.2471 23.2864 19.6392 24.4035 20.4063C25.5033 21.1906 26.3282 22.3839 26.8781 23.9865L22.6849 24.9071C22.5818 24.5491 22.4272 24.1911 22.2209 23.8842C21.9632 23.5262 21.6366 23.2534 21.2414 23.0488C20.8461 22.8442 20.3993 22.759 19.9525 22.759C18.8698 22.759 18.0449 23.1852 17.4778 24.0547C17.0482 24.6855 16.8248 25.6913 16.8248 27.0552C16.8248 28.7429 17.0825 29.9022 17.5981 30.533C18.1137 31.1638 18.8354 31.4706 19.7806 31.4706C20.6914 31.4706 21.3789 31.2149 21.8429 30.7205C22.3069 30.192 22.6506 29.459 22.8568 28.5043ZM32.5664 19.5028H37.3096V24.8389H42.4995V19.5028H47.277V34.7439H42.4995V28.5724H37.3096V34.7439H32.5664V19.5028Z" fill="#F6F6F6"/>
<path d="M46.623 27.1238C46.623 24.6348 47.3276 22.6913 48.7196 21.3104C50.1117 19.9294 52.0708 19.2305 54.5626 19.2305C57.1232 19.2305 59.0823 19.9124 60.4744 21.2763C61.8664 22.6401 62.5538 24.5495 62.5538 27.0045C62.5538 28.7945 62.2444 30.2436 61.643 31.3859C61.0587 32.511 60.1478 33.4316 59.0308 34.0454C57.8794 34.6762 56.453 35.0001 54.7517 35.0001C53.016 35.0001 51.5896 34.7273 50.4554 34.1818C49.2868 33.6021 48.3244 32.6986 47.6885 31.5904C46.9839 30.3971 46.623 28.9139 46.623 27.1238ZM51.3662 27.1408C51.3662 28.6752 51.6583 29.7833 52.2254 30.4652C52.7925 31.1301 53.5831 31.4711 54.5798 31.4711C55.5937 31.4711 56.3843 31.1472 56.9514 30.4823C57.5185 29.8174 57.7935 28.6411 57.7935 26.9363C57.7935 25.5042 57.5013 24.4472 56.917 23.7994C56.3327 23.1345 55.5422 22.8106 54.5454 22.8106C53.669 22.7765 52.8269 23.1516 52.2426 23.8164C51.6583 24.4813 51.3662 25.5895 51.3662 27.1408ZM67.4172 27.1238C67.4172 24.6348 68.1218 22.6913 69.5138 21.3104C70.9058 19.9294 72.8649 19.2305 75.3568 19.2305C77.9174 19.2305 79.8937 19.9124 81.2685 21.2763C82.6433 22.6401 83.3479 24.5495 83.3479 27.0045C83.3479 28.7945 83.0386 30.2436 82.4371 31.3859C81.8528 32.511 80.942 33.4316 79.8249 34.0454C78.6735 34.6762 77.2471 35.0001 75.5458 35.0001C73.8101 35.0001 72.3837 34.7273 71.2495 34.1818C70.0809 33.6021 69.1185 32.6986 68.4827 31.5904C67.7781 30.3971 67.4172 28.9139 67.4172 27.1238ZM72.1603 27.1408C72.1603 28.6752 72.4525 29.7833 73.0196 30.4652C73.5867 31.1301 74.3772 31.4711 75.374 31.4711C76.3879 31.4711 77.1784 31.1472 77.7455 30.4823C78.3126 29.8174 78.5876 28.6411 78.5876 26.9363C78.5876 25.5042 78.2954 24.4472 77.7111 23.7994C77.1269 23.1345 76.3363 22.8106 75.3396 22.8106C74.4631 22.7765 73.6039 23.1516 73.0368 23.8164C72.4525 24.4813 72.1603 25.5895 72.1603 27.1408Z" fill="#F6F6F6"/>
<path d="M82.8492 19.5029H87.5923V30.9934H94.9992V34.744H82.832V19.5029H82.8492Z" fill="#F6F6F6"/>
<path d="M77.6211 18.6238C82.3965 15.0539 83.869 9.00239 80.9102 5.10732C77.9513 1.21225 71.6816 0.948653 66.9062 4.51855C62.1309 8.08845 60.6584 14.14 63.6172 18.0351C66.5761 21.9301 72.8458 22.1937 77.6211 18.6238Z" fill="white"/>
<mask id="mask0_213_609" style="mask-type:luminance" maskUnits="userSpaceOnUse" x="62" y="2" width="21" height="20">
<path d="M77.6211 18.6238C82.3965 15.0539 83.869 9.00239 80.9102 5.10732C77.9513 1.21225 71.6816 0.948653 66.9062 4.51855C62.1309 8.08845 60.6584 14.14 63.6172 18.0351C66.5761 21.9301 72.8458 22.1937 77.6211 18.6238Z" fill="white"/>
</mask>
<g mask="url(#mask0_213_609)">
<path d="M51.4395 9.63867L76.1162 -8.80901L93.1918 13.6696L68.515 32.1173L51.4395 9.63867Z" fill="white"/>
<mask id="mask1_213_609" style="mask-type:luminance" maskUnits="userSpaceOnUse" x="51" y="-9" width="43" height="42">
<path d="M51.4395 9.63867L76.1162 -8.80901L93.1918 13.6696L68.515 32.1173L51.4395 9.63867Z" fill="white"/>
</mask>
<g mask="url(#mask1_213_609)">
<path d="M77.6211 18.6238C82.3965 15.0539 83.869 9.00239 80.9102 5.10732C77.9513 1.21225 71.6816 0.948653 66.9062 4.51855C62.1309 8.08845 60.6584 14.14 63.6172 18.0351C66.5761 21.9301 72.8458 22.1937 77.6211 18.6238Z" fill="white"/>
<mask id="mask2_213_609" style="mask-type:luminance" maskUnits="userSpaceOnUse" x="62" y="2" width="21" height="20">
<path d="M77.6211 18.6238C82.3965 15.0539 83.869 9.00239 80.9102 5.10732C77.9513 1.21225 71.6816 0.948653 66.9062 4.51855C62.1309 8.08845 60.6584 14.14 63.6172 18.0351C66.5761 21.9301 72.8458 22.1937 77.6211 18.6238Z" fill="white"/>
</mask>
<g mask="url(#mask2_213_609)">
<path d="M58.3105 11.1396L75.59 -1.77754L86.315 12.3415L69.0355 25.2587L58.3105 11.1396Z" fill="white"/>
<mask id="mask3_213_609" style="mask-type:luminance" maskUnits="userSpaceOnUse" x="58" y="-2" width="29" height="28">
<path d="M58.3105 11.1396L75.59 -1.77754L86.315 12.3415L69.0355 25.2587L58.3105 11.1396Z" fill="white"/>
</mask>
<g mask="url(#mask3_213_609)">
<path d="M77.6211 18.6229C82.3965 15.053 83.869 9.00141 80.9102 5.10634C77.9513 1.21128 71.6816 0.947677 66.9062 4.51757C62.1309 8.08747 60.6584 14.139 63.6172 18.0341C66.5761 21.9292 72.8458 22.1928 77.6211 18.6229Z" fill="white" stroke="#F6F6F6" stroke-width="4" stroke-miterlimit="10"/>
</g>
<mask id="mask4_213_609" style="mask-type:luminance" maskUnits="userSpaceOnUse" x="60" y="-2" width="24" height="27">
<path d="M60.7734 19.6035L66.7188 -1.01238L83.8679 3.87697L77.9226 24.4929L60.7734 19.6035Z" fill="white"/>
</mask>
<g mask="url(#mask4_213_609)">
<path d="M58.3105 11.126L75.5754 -1.77633L86.315 12.3576L69.0502 25.2599L58.3105 11.126Z" stroke="#F6F6F6" stroke-width="4" stroke-miterlimit="10"/>
</g>
<path d="M77.6211 18.6238C82.3965 15.0539 83.869 9.00239 80.9102 5.10732C77.9513 1.21225 71.6816 0.948653 66.9062 4.51855C62.1309 8.08845 60.6584 14.14 63.6172 18.0351C66.5761 21.9301 72.8458 22.1937 77.6211 18.6238Z" stroke="#F6F6F6" stroke-width="4" stroke-miterlimit="10"/>
<path d="M58.3105 11.1396L75.59 -1.77754L86.315 12.3415L69.0355 25.2587L58.3105 11.1396Z" fill="white"/>
<mask id="mask5_213_609" style="mask-type:luminance" maskUnits="userSpaceOnUse" x="58" y="-2" width="29" height="28">
<path d="M58.3105 11.1396L75.59 -1.77754L86.315 12.3415L69.0355 25.2587L58.3105 11.1396Z" fill="white"/>
</mask>
<g mask="url(#mask5_213_609)">
<path d="M77.6211 18.6229C82.3965 15.053 83.869 9.00141 80.9102 5.10634C77.9513 1.21128 71.6816 0.947677 66.9062 4.51757C62.1309 8.08747 60.6584 14.139 63.6172 18.0341C66.5761 21.9292 72.8458 22.1928 77.6211 18.6229Z" fill="white" stroke="#F6F6F6" stroke-width="4" stroke-miterlimit="10"/>
</g>
<mask id="mask6_213_609" style="mask-type:luminance" maskUnits="userSpaceOnUse" x="60" y="-2" width="24" height="27">
<path d="M60.7734 19.6035L66.7188 -1.01238L83.8679 3.87697L77.9226 24.4929L60.7734 19.6035Z" fill="white"/>
</mask>
<g mask="url(#mask6_213_609)">
<path d="M58.3105 11.126L75.5754 -1.77633L86.315 12.3576L69.0502 25.2599L58.3105 11.126Z" stroke="#F6F6F6" stroke-width="4" stroke-miterlimit="10"/>
</g>
<path d="M51.4395 9.63867L76.1162 -8.80901L93.1918 13.6696L68.515 32.1173L51.4395 9.63867Z" stroke="#F6F6F6" stroke-width="4" stroke-miterlimit="10"/>
</g>
<path d="M77.6211 18.6238C82.3965 15.0539 83.869 9.00239 80.9102 5.10732C77.9513 1.21225 71.6816 0.948653 66.9062 4.51855C62.1309 8.08845 60.6584 14.14 63.6172 18.0351C66.5761 21.9301 72.8458 22.1937 77.6211 18.6238Z" stroke="#F6F6F6" stroke-width="4" stroke-miterlimit="10"/>
<path d="M67.4336 10.4512L69.1521 9.2578L71.2659 12.2412C71.6268 12.7186 71.9017 13.23 72.108 13.7926C72.2283 14.2188 72.1939 14.6791 72.022 15.0883C71.7986 15.5997 71.4377 16.0259 70.9565 16.3328C70.3894 16.7249 69.9082 16.9465 69.4958 17.0147C69.1005 17.0829 68.6881 17.0147 68.31 16.8443C67.8976 16.6397 67.5367 16.3499 67.2617 15.9748L68.7397 14.6109C68.8599 14.7985 69.0146 14.969 69.1865 15.1053C69.3068 15.1906 69.4442 15.2417 69.5989 15.2417C69.7192 15.2417 69.8395 15.1906 69.9254 15.1224C70.0973 15.0201 70.2176 14.8155 70.2004 14.6109C70.1488 14.3211 70.0285 14.0313 69.8395 13.8097L67.4336 10.4512ZM72.5891 12.3435L74.153 11.1161C74.3249 11.3206 74.5483 11.4741 74.7889 11.5593C75.1326 11.6616 75.4934 11.5934 75.7856 11.3718C75.9918 11.2354 76.1637 11.0479 76.2324 10.8092C76.3355 10.5023 76.1637 10.1614 75.8543 10.0591C75.8028 10.042 75.7512 10.025 75.6997 10.025C75.4934 10.0079 75.1326 10.0932 74.5998 10.3148C73.7234 10.6728 73.036 10.8092 72.5204 10.758C72.022 10.7069 71.558 10.4512 71.2831 10.025C71.0768 9.73515 70.9737 9.39419 70.9565 9.05322C70.9565 8.66111 71.0597 8.269 71.2831 7.94509C71.6096 7.48478 72.0048 7.09268 72.486 6.78581C73.2078 6.29141 73.8437 6.05273 74.3936 6.05273C74.9435 6.05273 75.4591 6.30846 75.9403 6.83695L74.3936 8.04738C74.0843 7.65527 73.5 7.57003 73.1047 7.87689L73.0531 7.92804C72.8813 8.03033 72.761 8.18376 72.6923 8.37129C72.6407 8.50768 72.6751 8.66111 72.761 8.78045C72.8297 8.86569 72.9328 8.93388 73.0531 8.93388C73.1906 8.95093 73.4312 8.88274 73.7749 8.72931C74.6342 8.37129 75.2872 8.16671 75.734 8.09852C76.1121 8.03033 76.5074 8.06442 76.8683 8.21786C77.1948 8.35424 77.4698 8.59292 77.6588 8.88274C77.8994 9.2237 78.0369 9.63286 78.0541 10.0591C78.0712 10.5023 77.9509 10.9285 77.7103 11.3036C77.401 11.7639 77.0057 12.156 76.5417 12.4629C75.5966 13.1107 74.8232 13.3835 74.2046 13.2812C73.5343 13.1789 72.9844 12.8379 72.5891 12.3435Z" fill="#F6F6F6"/>
</g>
</g>
</g>
<defs>
<clipPath id="clip0_213_609">
<rect width="95" height="35" fill="white"/>
</clipPath>
</defs>
</svg>
